<?xml version="1.0" standalone="no"?>
<!DOCTYPE svg PUBLIC "-//W3C//DTD SVG 20010904//EN"
 "http://www.w3.org/TR/2001/REC-SVG-20010904/DTD/svg10.dtd">
<svg version="1.0" xmlns="http://www.w3.org/2000/svg"
 width="24.000000pt" height="24.000000pt" viewBox="0 0 24.000000 24.000000"
 preserveAspectRatio="xMidYMid meet">

<g transform="translate(0.000000,24.000000) scale(0.100000,-0.100000)"
fill="#000000" stroke="none">
<path d="M35 200 c-14 -23 13 -31 91 -28 62 2 79 6 79 18 0 12 -17 16 -82 18
-52 2 -84 -1 -88 -8z"/>
<path d="M35 130 c-14 -23 13 -31 91 -28 62 2 79 6 79 18 0 12 -17 16 -82 18
-52 2 -84 -1 -88 -8z"/>
<path d="M35 60 c-14 -23 13 -31 91 -28 62 2 79 6 79 18 0 12 -17 16 -82 18
-52 2 -84 -1 -88 -8z"/>
</g>
</svg>
